HIERARCHY
ROOT Bip001_Pelvis
{
  OFFSET 34.4345 95.6767 -26.8758
  CHANNELS 6 Xposition Yposition Zposition Zrotation Xrotation Yrotation
  JOINT Bip001_Spine
  {
    OFFSET 1.4188e-005 10.2191 -0.0116013
    CHANNELS 3 Zrotation Xrotation Yrotation
    JOINT Bip001_L_Thigh
    {
      OFFSET 11.0458 -10.2192 0.0116197
      CHANNELS 3 Zrotation Xrotation Yrotation
      JOINT Bip001_L_Calf
      {
        OFFSET -0.707118 -44.0221 0.360014
        CHANNELS 3 Zrotation Xrotation Yrotation
        JOINT Bip001_L_Foot
        {
          OFFSET -0.651902 -40.5938 -3.56146
          CHANNELS 3 Zrotation Xrotation Yrotation
          JOINT Bip001_L_Toe0
          {
            OFFSET 0.0530839 -10.2181 13.1504
            CHANNELS 3 Zrotation Xrotation Yrotation
            End Site
            {
              OFFSET -1.02532e-005 0 7.55606
            }
          }
        }
      }
    }
    JOINT Bip001_R_Thigh
    {
      OFFSET -11.0458 -10.2191 0.0115893
      CHANNELS 3 Zrotation Xrotation Yrotation
      JOINT Bip001_R_Calf
      {
        OFFSET 0.706994 -44.0221 0.35984
        CHANNELS 3 Zrotation Xrotation Yrotation
        JOINT Bip001_R_Foot
        {
          OFFSET 0.651786 -40.5938 -3.5613
          CHANNELS 3 Zrotation Xrotation Yrotation
          JOINT Bip001_R_Toe0
          {
            OFFSET -0.0531479 -10.2181 13.1504
            CHANNELS 3 Zrotation Xrotation Yrotation
            End Site
            {
              OFFSET -1.02894e-005 0 7.55606
            }
          }
        }
      }
    }
    JOINT Bip001_Spine1
    {
      OFFSET 1.87041e-005 14.5736 1.08638
      CHANNELS 3 Zrotation Xrotation Yrotation
      JOINT Bip001_Spine2
      {
        OFFSET 2.24614e-005 14.5058 -1.69078
        CHANNELS 3 Zrotation Xrotation Yrotation
        JOINT Bip001_Neck
        {
          OFFSET 2.20278e-005 15.3945 -0.489414
          CHANNELS 3 Zrotation Xrotation Yrotation
          JOINT Bip001_L_Clavicle
          {
            OFFSET 6.06036 -0.000579998 0.00836775
            CHANNELS 3 Zrotation Xrotation Yrotation
            JOINT Bip001_L_UpperArm
            {
              OFFSET 11.5509 -0.0600302 0.00193952
              CHANNELS 3 Zrotation Xrotation Yrotation
              JOINT Bip001_L_Forearm
              {
                OFFSET 25.9523 0.0806089 -2.15551
                CHANNELS 3 Zrotation Xrotation Yrotation
                JOINT Bip001_L_Hand
                {
                  OFFSET 32.2475 0.153767 1.63968
                  CHANNELS 3 Zrotation Xrotation Yrotation
                  JOINT Bip001_L_Finger0
                  {
                    OFFSET 6.04639 -2.20976 5.90322
                    CHANNELS 3 Zrotation Xrotation Yrotation
                    End Site
                    {
                      OFFSET 4.22375 -1.43895 0.606485
                    }
                  }
                  JOINT Bip001_L_Finger1
                  {
                    OFFSET 11.0826 -0.704819 -0.198153
                    CHANNELS 3 Zrotation Xrotation Yrotation
                    End Site
                    {
                      OFFSET 6.20027 -0.397518 -0.0787166
                    }
                  }
                }
              }
            }
          }
          JOINT Bip001_R_Clavicle
          {
            OFFSET -6.06037 -0.000563197 0.00835105
            CHANNELS 3 Zrotation Xrotation Yrotation
            JOINT Bip001_R_UpperArm
            {
              OFFSET -11.5509 -0.0599978 0.00190698
              CHANNELS 3 Zrotation Xrotation Yrotation
              JOINT Bip001_R_Forearm
              {
                OFFSET -25.9523 0.0806822 -2.15589
                CHANNELS 3 Zrotation Xrotation Yrotation
                JOINT Bip001_R_Hand
                {
                  OFFSET -32.2475 0.153859 1.63989
                  CHANNELS 3 Zrotation Xrotation Yrotation
                  JOINT Bip001_R_Finger0
                  {
                    OFFSET -6.04641 -2.20976 5.90317
                    CHANNELS 3 Zrotation Xrotation Yrotation
                    End Site
                    {
                      OFFSET -4.22376 -1.43895 0.60647
                    }
                  }
                  JOINT Bip001_R_Finger1
                  {
                    OFFSET -11.0826 -0.704794 -0.198182
                    CHANNELS 3 Zrotation Xrotation Yrotation
                    End Site
                    {
                      OFFSET -6.20028 -0.397504 -0.0787333
                    }
                  }
                }
              }
            }
          }
          JOINT Bip001_Head
          {
            OFFSET 1.09673e-005 11.2744 2.05948
            CHANNELS 3 Zrotation Xrotation Yrotation
            End Site
            {
              OFFSET 2.89576e-005 20.8808 -2.77728e-005
            }
          }
        }
      }
    }
  }
}
MOTION
Frames:	8
Frame Time:	0.04
34.1291 95.934 -27.9381 -0.713813 1.66009 7.76236 -0.362746 1.55941 0.516822 5.8598 -6.38841 5.39492 -0.892609 9.47573 -11.5639 2.46879 -5.41196 0.0153794 0.629843 -3.41053 -0.291221 -2.11764 -2.25639 -9.31144 -1.49259 8.40584 0.607194 -5.43346 -8.44272 2.76485 2.509 -8.37644 2.53476 -0.741469 3.11538 1.04533 -0.740629 3.11539 1.0448 0.492379 -7.59642 -4.87077 -24.2467 7.14669 3.6542 -55.306 41.8751 2.76324 15.7773 -1.85037 -23.6061 7.98754 1.8519 -3.3365 -1.59028e-015 -6.36111e-015 3.18055e-015 -1.59028e-015 0 3.18055e-015 4.55036 13.8111 41.0666 86.6081 -54.9422 76.7609 -52.4769 4.37126 107.216 -42.8306 4.73941 1.06551 0 0 -0 0 0 -0 0.102615 -8.0307 -4.65531 
34.1787 95.9393 -27.8034 -0.707234 1.7907 8.56515 -0.415302 1.52514 0.556074 5.84533 -6.55947 4.66724 -0.894963 9.45855 -11.5645 1.76076 -5.70053 0.0270221 0.341062 -3.05853 -0.14885 -2.03055 -2.13474 -10.5308 -1.74019 8.38731 0.583126 -5.31236 -8.5122 3.16266 2.52604 -8.42789 2.5518 -0.845841 3.04614 1.12378 -0.84584 3.04613 1.12378 0.578141 -7.92873 -5.24372 -24.3086 7.21911 4.37523 -55.5222 42.474 3.29865 16.1282 -2.08064 -24.3677 8.29608 1.79766 -3.01464 -1.59028e-015 0 3.18055e-015 -1.59028e-015 3.18056e-015 3.18055e-015 2.629 13.5058 42.5673 84.7242 -52.185 77.8444 -53.6377 5.26669 103.616 -42.7491 4.71191 1.37692 1.59028e-015 3.18055e-015 -1.59028e-015 1.59028e-015 6.36111e-015 -3.18055e-015 0.107912 -7.93228 -4.99685 
34.189 95.9436 -27.6613 -0.80075 2.01179 9.25878 -0.443201 1.45258 0.606042 5.9098 -6.79386 4.57823 -0.88823 9.50565 -12.0924 2.10275 -5.64116 0.0281463 0.483313 -3.08301 -0.299211 -1.81529 -2.0031 -11.5689 -2.01342 8.14808 0.574803 -5.2336 -8.48462 3.45978 2.55232 -8.51073 2.58469 -0.901758 2.90034 1.22647 -0.90181 2.90034 1.22519 0.650261 -8.02599 -5.58096 -24.3072 7.12195 4.87515 -55.8907 42.9329 3.98193 16.3799 -2.54572 -25.0287 8.24027 1.68771 -2.85938 4.77083e-015 9.54166e-015 -3.18055e-015 3.18055e-015 6.36111e-015 -0 0.963666 12.9542 43.6114 81.2621 -49.0971 77.9515 -54.7429 6.44344 98.9611 -40.9916 5.59959 1.40656 -3.53112e-031 -1.27222e-014 -1.59028e-015 -3.53113e-031 -1.27222e-014 -1.59028e-015 0.135465 -7.67508 -5.31098 
34.2001 95.9307 -27.5179 -0.869797 2.18501 9.87077 -0.431748 1.41256 0.614234 5.9662 -7.02772 4.44425 -0.905267 9.60904 -12.4949 1.58445 -5.91523 0.0284946 0.212311 -2.91008 -0.226692 -1.70895 -1.98783 -12.3516 -2.18956 8.17923 0.67953 -5.25196 -8.55123 3.53439 2.56082 -8.54613 2.59091 -0.878733 2.82038 1.23917 -0.878895 2.82037 1.2394 0.660338 -8.21742 -5.77637 -24.4545 7.1453 5.35469 -56.2149 43.3379 4.46709 16.6285 -3.00705 -25.3948 8.13499 1.82291 -2.61766 3.53112e-031 -6.36111e-015 3.18055e-015 4.77083e-015 0 6.36111e-015 -1.1914 12.2134 44.9734 76.4798 -46.286 77.2201 -56.0548 8.16673 92.8401 -38.6129 5.99125 1.44994 4.41391e-032 -3.18055e-015 7.95139e-016 8.82782e-032 -3.18056e-015 1.59028e-015 0.0773544 -7.40999 -5.48168 
34.1941 95.922 -27.4079 -0.971711 2.32542 10.3948 -0.433285 1.39338 0.590191 6.07783 -7.32157 4.49349 -0.956602 9.91585 -12.8824 1.81384 -6.08337 0.0290193 0.434624 -2.72819 -0.259634 -1.56242 -1.92977 -12.9529 -2.32088 8.05775 0.699378 -5.24325 -8.55002 3.64975 2.55928 -8.57109 2.59066 -0.863438 2.78229 1.19121 -0.863435 2.78228 1.1912 0.646518 -8.32113 -5.79995 -24.4709 7.23027 5.41951 -56.5309 43.3987 4.99985 16.796 -3.28651 -25.6436 8.14367 1.76667 -2.62105 1.59028e-015 3.18055e-015 -3.18055e-015 3.18055e-015 3.18056e-015 -0 -3.22009 11.3347 45.8238 65.7458 -41.4344 73.1739 -55.948 9.13239 81.0987 -35.5386 7.30004 1.68464 0 0 -0 7.95139e-016 -3.18056e-015 -3.97569e-016 0.174719 -7.35227 -5.52299 
34.1836 95.9302 -27.291 -1.00324 2.39686 10.7172 -0.440744 1.34477 0.635008 6.17009 -7.36422 4.72879 -0.962579 9.97213 -13.4054 1.52053 -6.28808 0.0295719 0.307977 -2.51974 -0.168618 -1.48915 -1.79968 -13.9161 -2.44636 7.96135 0.866035 -5.10899 -8.61057 4.05939 2.55547 -8.51222 2.58528 -0.896748 2.68453 1.28088 -0.896748 2.68453 1.28088 1.25288 -7.95383 -6.03431 -24.9553 6.87554 4.97736 -57.069 43.4206 5.82884 16.652 -3.77162 -25.6934 8.14701 1.7126 -2.50551 -3.18055e-015 9.54166e-015 -3.18055e-015 -4.77083e-015 6.36111e-015 -3.18055e-015 -4.4568 10.5373 45.9182 42.4756 -31.9029 63.9956 -55.7223 3.31771 60.0661 -37.0747 13.3941 -0.212825 -7.95139e-016 -3.18055e-015 3.97569e-016 -1.59028e-015 -3.18056e-015 7.95139e-016 -0.237887 -7.47024 -5.54807 
34.1726 95.9095 -27.1925 -1.04974 2.45599 10.7854 -0.458198 1.28363 0.689413 6.22652 -7.43257 6.06946 -0.70967 10.2333 -14.8924 1.62891 -6.41412 0.0301278 0.321022 -2.54805 -0.168164 -1.43004 -1.77467 -14.3829 -2.52315 8.0477 0.995844 -5.03474 -8.72426 4.29058 2.54812 -8.49319 2.57219 -0.932595 2.5616 1.38942 -0.93275 2.56163 1.38952 1.69528 -7.79533 -6.21958 -25.3278 6.64828 4.91164 -57.4479 43.7871 6.41137 16.5124 -4.14346 -25.5752 7.72896 2.05616 -2.23601 -1.59028e-015 0 -3.18055e-015 0 3.18056e-015 -0 -4.61135 10.4199 45.3206 41.4248 -30.6612 66.0169 -54.8736 2.19955 57.682 -31.6499 10.7305 1.71086 0 0 -3.97569e-016 5.51738e-032 3.18056e-015 -9.93923e-016 -0.434408 -7.42074 -5.60093 
34.1759 95.9072 -27.1265 -1.01866 2.44995 10.6599 -0.466305 1.25983 0.736542 6.2033 -7.33231 6.61768 -0.588852 10.237 -15.2667 1.51198 -6.5117 0.0306719 0.343598 -2.4524 -0.210349 -1.4816 -1.73652 -14.4253 -2.49231 8.11139 1.05871 -5.03173 -8.79073 4.37508 2.52749 -8.43396 2.55628 -0.949426 2.51889 1.48437 -0.949407 2.51888 1.4841 1.92115 -7.84537 -6.38321 -25.5828 6.6523 4.88262 -57.5241 43.9581 6.49394 16.2866 -4.22168 -25.2288 7.71542 2.13656 -2.18725 -7.95139e-015 -9.54166e-015 6.36111e-015 -6.36111e-015 -9.54167e-015 9.54166e-015 -5.79238 9.88674 45.0093 40.2331 -29.9648 65.0587 -51.9227 1.49515 56.7046 -32.4049 10.4721 1.19841 3.31043e-032 3.18055e-015 -5.96354e-016 9.93923e-017 0 -1.39149e-015 -0.726751 -7.10004 -5.64907 
